<svg xmlns="http://www.w3.org/2000/svg" viewBox="0 0 300 240">
<defs><filter id="s"><feDropShadow dx="0" dy="8" stdDeviation="8" flood-opacity=".16"/></filter></defs>
<rect width="300" height="240" rx="30" fill="#fff7df"/>
<g filter="url(#s)"><ellipse cx="150" cy="154" rx="92" ry="31" fill="#d8e1dd"/><path d="M72 112h156l-15 53c-5 18-19 28-39 28h-48c-20 0-34-10-39-28z" fill="#fff"/><ellipse cx="150" cy="112" rx="78" ry="26" fill="#f1b54b"/><path d="M103 109c20-17 38-19 52 2 13-23 33-19 46-2" fill="none" stroke="#8e462f" stroke-width="13" stroke-linecap="round"/><path d="M89 117l22-15m17 24 21-24m15 21 24-18m-3 24 23-15" stroke="#fff2b2" stroke-width="5"/><circle cx="121" cy="98" r="5" fill="#2d8a57"/><circle cx="178" cy="99" r="5" fill="#2d8a57"/></g>
<text x="150" y="220" text-anchor="middle" font-family="Arial,sans-serif" font-size="15" font-weight="700" fill="#24362e">Chicken Biryani</text>
</svg>